<?xml version="1.0" ?><svg viewBox="0 0 48 48" xmlns="http://www.w3.org/2000/svg"><title/><g data-name="Layer 10" id="Layer_10"><path d="M45,22.34,45,22a1,1,0,0,0-1-.95,10.72,10.72,0,0,0-10.46-10,10.1,10.1,0,0,0-4.45,1,14.07,14.07,0,0,0-7.49-4.6,13.91,13.91,0,0,0-2.16-.36,3.31,3.31,0,0,1-.79.7,3.56,3.56,0,0,1-1.47.52,3,3,0,0,1-.85,0,3.73,3.73,0,0,1,.4-.83A2.18,2.18,0,0,1,17,7.11a4.07,4.07,0,0,0-.61,0,12,12,0,0,0-1.92.33l-.5.13a3.32,3.32,0,0,1,.36.26,3.69,3.69,0,0,1,.63.68,3.28,3.28,0,0,1-.81.24,3.43,3.43,0,0,1-1.56-.05,3.32,3.32,0,0,1-.8-.34A14,14,0,0,0,9.88,9.49,12.71,12.71,0,0,0,4,20.07a8.27,8.27,0,0,0,0,1,1,1,0,0,0-1,.95l0,.32c0,.24,0,.48,0,.73a21,21,0,0,0,42,0C45,22.82,45,22.58,45,22.34ZM30.24,13.76a8.1,8.1,0,0,1,3.26-.69,8.7,8.7,0,0,1,8.45,8H25.05a9.12,9.12,0,0,1,3.47-6.29A8.48,8.48,0,0,1,30.24,13.76ZM6,20.07a10.86,10.86,0,0,1,5.88-9.46,12.39,12.39,0,0,1,2.4-1,12.9,12.9,0,0,1,3-.52l.72,0a13,13,0,0,1,2.08.17,12.26,12.26,0,0,1,7.26,3.92A11.16,11.16,0,0,0,23,21.07h-17C6,20.74,6,20.41,6,20.07Zm18,22A19,19,0,0,1,5.12,25.16,18,18,0,0,1,5,23.07H43a18.45,18.45,0,0,1-.65,4.9A19,19,0,0,1,24,42.07Z"/><path d="M21.57,4.29a5.49,5.49,0,0,0-6.3,1.78,5.51,5.51,0,0,0-6.54.17,1,1,0,0,0-.31,1.15,5.42,5.42,0,0,0,1.46,2.1,5.33,5.33,0,0,0,2,1.12l.21.07a5.47,5.47,0,0,0,3.82-.36,5.66,5.66,0,0,0,.82.06,5.55,5.55,0,0,0,2.95-.85,3.69,3.69,0,0,0,.4-.29A5.17,5.17,0,0,0,21.56,7.5a5.25,5.25,0,0,0,.65-2.2A1,1,0,0,0,21.57,4.29Zm-9,4.46a3.32,3.32,0,0,1-.8-.34,3.48,3.48,0,0,1-1.14-1,3.4,3.4,0,0,1,1.44-.32A3.58,3.58,0,0,1,13,7.2a3.19,3.19,0,0,1,1,.42,3.32,3.32,0,0,1,.36.26,3.69,3.69,0,0,1,.63.68,3.28,3.28,0,0,1-.81.24A3.43,3.43,0,0,1,12.61,8.75ZM19.4,7.14a3.31,3.31,0,0,1-.79.7,3.56,3.56,0,0,1-1.47.52,3,3,0,0,1-.85,0,3.73,3.73,0,0,1,.4-.83A2.18,2.18,0,0,1,17,7.11a3.19,3.19,0,0,1,.73-.63A3.5,3.5,0,0,1,20.06,6,3.44,3.44,0,0,1,19.4,7.14Z"/></g></svg>