<?xml version="1.0" standalone="no"?><svg xmlns="http://www.w3.org/2000/svg" viewBox="0 0 1440 320"><path fill="#F27405" fill-opacity="1" d="M0,224L30,229.3C60,235,120,245,180,229.3C240,213,300,171,360,149.3C420,128,480,128,540,106.7C600,85,660,43,720,48C780,53,840,107,900,154.7C960,203,1020,245,1080,272C1140,299,1200,309,1260,261.3C1320,213,1380,107,1410,53.3L1440,0L1440,320L1410,320C1380,320,1320,320,1260,320C1200,320,1140,320,1080,320C1020,320,960,320,900,320C840,320,780,320,720,320C660,320,600,320,540,320C480,320,420,320,360,320C300,320,240,320,180,320C120,320,60,320,30,320L0,320Z"></path></svg>