<?xml version="1.0" standalone="no"?><svg xmlns="http://www.w3.org/2000/svg" viewBox="0 0 1440 320"><path fill="#F27405" fill-opacity="1" d="M0,160L30,181.3C60,203,120,245,180,240C240,235,300,181,360,138.7C420,96,480,64,540,74.7C600,85,660,139,720,154.7C780,171,840,149,900,160C960,171,1020,213,1080,224C1140,235,1200,213,1260,181.3C1320,149,1380,107,1410,85.3L1440,64L1440,320L1410,320C1380,320,1320,320,1260,320C1200,320,1140,320,1080,320C1020,320,960,320,900,320C840,320,780,320,720,320C660,320,600,320,540,320C480,320,420,320,360,320C300,320,240,320,180,320C120,320,60,320,30,320L0,320Z"></path></svg>