<?xml version="1.0" standalone="no"?>
<!DOCTYPE svg PUBLIC "-//W3C//DTD SVG 20010904//EN"
 "http://www.w3.org/TR/2001/REC-SVG-20010904/DTD/svg10.dtd">
<svg version="1.0" xmlns="http://www.w3.org/2000/svg"
 width="512.000000pt" height="512.000000pt" viewBox="0 0 512.000000 512.000000"
 preserveAspectRatio="xMidYMid meet">
<metadata>
Created by potrace 1.14, written by Peter Selinger 2001-2017
</metadata>
<g transform="translate(0.000000,512.000000) scale(0.100000,-0.100000)"
fill="#000000" stroke="none">
<path d="M1958 4684 c-107 -25 -201 -79 -282 -160 l-47 -46 -72 35 c-172 85
-362 84 -532 -1 -106 -53 -144 -101 -131 -164 9 -44 76 -155 122 -201 20 -20
35 -38 33 -40 -2 -2 -38 -29 -80 -60 -339 -252 -533 -641 -542 -1084 -1 -81
-4 -93 -19 -93 -9 0 -34 -14 -54 -32 l-36 -32 5 -191 c4 -104 8 -201 11 -215
2 -14 9 -56 15 -95 57 -373 220 -740 462 -1043 206 -257 465 -465 764 -612
120 -59 354 -147 435 -164 182 -37 214 -42 315 -55 88 -11 346 -11 445 -1 108
11 184 21 190 25 3 2 25 6 50 10 67 10 265 69 371 110 510 201 944 599 1184
1090 121 247 166 397 220 725 3 19 8 116 11 216 8 221 2 239 -88 268 -12 4
-18 16 -19 38 -1 47 -7 76 -35 186 -50 191 -145 354 -293 503 -215 215 -467
326 -761 334 -179 5 -283 -14 -465 -85 -29 -12 -32 -10 -120 77 -49 48 -117
109 -150 134 -131 100 -341 205 -487 244 -38 10 -68 19 -68 21 0 2 13 42 29
90 36 107 37 180 3 217 -51 54 -257 82 -384 51z m178 -207 c8 -8 -46 -93 -84
-133 -65 -67 -172 -114 -264 -114 -49 0 -50 18 -1 90 60 89 125 134 225 154
55 11 115 13 124 3z m-681 -151 c28 -12 70 -42 95 -66 l45 -43 -35 -16 c-23
-10 -67 -15 -125 -15 -80 0 -98 3 -156 31 -57 26 -139 90 -139 107 0 11 53 28
100 33 25 3 46 6 48 8 8 7 125 -20 167 -39z m790 -216 c95 -22 168 -47 250
-85 54 -25 165 -87 190 -107 6 -5 39 -31 75 -59 109 -85 174 -159 141 -159 -6
0 -48 -37 -94 -83 -141 -139 -238 -295 -298 -479 -30 -91 -35 -113 -45 -183
-3 -22 -7 -50 -9 -61 l-5 -21 -906 0 -906 0 5 126 c3 69 8 135 11 146 27 121
39 162 61 221 93 247 270 455 503 593 30 17 58 28 64 25 20 -13 84 -19 178
-18 73 1 112 7 170 26 57 20 93 25 150 24 110 -3 237 33 325 92 38 26 43 26
140 2z m1497 -405 c282 -58 524 -251 647 -517 41 -86 81 -229 81 -284 l0 -32
-899 0 -900 -1 4 27 c47 333 250 614 539 747 169 79 344 98 528 60z m842
-1110 c-1 -69 -14 -227 -19 -235 -2 -3 -6 -26 -10 -50 -21 -146 -104 -398
-182 -554 -168 -336 -445 -636 -765 -830 -168 -102 -431 -209 -588 -240 -146
-28 -197 -37 -270 -44 -132 -14 -388 -6 -495 14 -11 2 -45 8 -75 14 -229 42
-423 116 -662 252 -241 137 -519 411 -679 668 -100 161 -222 450 -244 579 -3
19 -8 37 -10 41 -20 32 -62 420 -49 442 3 4 915 7 2027 6 l2022 -3 -1 -60z"/>
</g>
</svg>
