<svg width="171" height="55" viewBox="0 0 171 55" fill="none" xmlns="http://www.w3.org/2000/svg">
<path d="M51.5625 25.5979V25.2083C51.5478 24.9145 51.4206 24.6375 51.2073 24.4349C50.994 24.2323 50.7109 24.1194 50.4167 24.1198C50.2113 21.0579 48.8673 18.1838 46.6491 16.0632C44.4309 13.9425 41.4993 12.729 38.4313 12.6615C36.6665 12.6496 34.9223 13.0416 33.3323 13.8073C31.1078 11.1789 28.1002 9.33181 24.75 8.53646C23.9371 8.33414 23.1096 8.19621 22.275 8.12396C22.0181 8.43802 21.7125 8.70882 21.3698 8.92605C20.8593 9.24669 20.284 9.45018 19.6854 9.52188C19.3624 9.5681 19.0345 9.5681 18.7115 9.52188C18.8243 9.18714 18.9783 8.86769 19.1698 8.57084C19.2577 8.41905 19.3614 8.27694 19.4792 8.14688C19.2465 8.12939 19.0129 8.12939 18.7802 8.14688C18.0378 8.21309 17.3021 8.33955 16.5802 8.525L16.0073 8.67396C16.1513 8.76395 16.2891 8.86348 16.4198 8.97188C16.6922 9.20022 16.9348 9.46201 17.1417 9.75105C16.8454 9.88234 16.5335 9.97477 16.2135 10.026C15.6212 10.1446 15.0096 10.125 14.426 9.96875C14.1047 9.87963 13.7965 9.74864 13.5094 9.57917C12.7467 9.95218 12.0149 10.3851 11.3208 10.874C9.27842 12.1752 7.59272 13.9651 6.41631 16.0819C5.23989 18.1986 4.60989 20.5753 4.58333 22.9969C4.56022 23.3785 4.56022 23.7611 4.58333 24.1427C4.28911 24.1423 4.00602 24.2552 3.79271 24.4578C3.5794 24.6605 3.45221 24.9374 3.4375 25.2313V25.5979C3.4375 25.8729 3.4375 26.1479 3.4375 26.4344C3.4375 32.8161 5.97265 38.9365 10.4852 43.4491C14.9978 47.9617 21.1182 50.4969 27.5 50.4969C33.8818 50.4969 40.0022 47.9617 44.5148 43.4491C49.0274 38.9365 51.5625 32.8161 51.5625 26.4344C51.5625 26.1479 51.5625 25.8729 51.5625 25.5979ZM34.65 15.7667C35.8269 15.2471 37.0989 14.9779 38.3854 14.976C40.8463 15.0389 43.197 16.01 44.9846 17.7025C46.7722 19.3949 47.8704 21.6889 48.0677 24.1427H28.7031C28.8434 22.7348 29.2682 21.37 29.9516 20.1311C30.6351 18.8922 31.563 17.805 32.6792 16.9354C33.2877 16.4695 33.9493 16.0772 34.65 15.7667ZM6.875 22.9969C6.91467 20.7501 7.562 18.556 8.74825 16.6475C9.93449 14.739 11.6154 13.1874 13.6125 12.1573C14.4864 11.68 15.4082 11.2959 16.3625 11.0115C17.4808 10.6778 18.6347 10.4778 19.8 10.4156H20.625C21.4234 10.4166 22.2204 10.4817 23.0083 10.6104C26.2169 11.1016 29.1564 12.6888 31.3271 15.1021C29.9157 16.1809 28.7445 17.542 27.8883 19.0986C27.0321 20.6551 26.5096 22.373 26.3542 24.1427H6.875C6.875 23.7646 6.875 23.3865 6.875 22.9969ZM27.5 48.2052C22.1416 48.2039 16.9719 46.2265 12.9804 42.6515C8.98895 39.0765 6.45609 34.1551 5.86667 28.8292C5.77441 28.0342 5.866 28.3003 5.86667 27.5H49C49.0047 29.3965 49.025 30.2193 48.526 32.049C47.2895 36.6814 44.5584 40.7761 40.7565 43.6975C36.9546 46.6188 32.2946 48.2034 27.5 48.2052Z" fill="#F24444"/>
<path d="M24.7157 4.91563C23.4529 4.43537 22.0691 4.37439 20.769 4.74172C19.4689 5.10905 18.3216 5.88516 17.4969 6.95522C16.3909 6.18283 15.0666 5.78501 13.718 5.82006C12.3694 5.85512 11.0675 6.3212 10.0032 7.15001C9.81047 7.30252 9.67193 7.51294 9.60797 7.75021C9.54401 7.98748 9.55803 8.23902 9.64795 8.46772C10.0056 9.39177 10.5793 10.2168 11.3209 10.874C11.9826 11.4629 12.7646 11.9008 13.6125 12.1573L13.8532 12.2375C15.3141 12.633 16.8689 12.4865 18.2302 11.825C18.5414 11.8707 18.8554 11.8937 19.1698 11.8938C20.3657 11.8934 21.5373 11.5558 22.55 10.9198C22.7101 10.8194 22.8632 10.7084 23.0084 10.5875C23.7152 10.0577 24.2946 9.37647 24.7042 8.59376C25.1352 7.81866 25.3896 6.95783 25.449 6.07293C25.4677 5.82677 25.4065 5.58113 25.2743 5.3726C25.1422 5.16407 24.9462 5.00379 24.7157 4.91563V4.91563ZM14.4032 10.0261C14.0818 9.93692 13.7736 9.80594 13.4865 9.63647C12.9721 9.35519 12.5261 8.96396 12.1802 8.49063C12.6968 8.24913 13.26 8.12397 13.8302 8.12397C14.1894 8.11914 14.5477 8.16152 14.8959 8.25001C15.3025 8.34384 15.69 8.50661 16.0417 8.73126C16.1857 8.82125 16.3235 8.92077 16.4542 9.02918C16.7266 9.25752 16.9692 9.51931 17.1761 9.80834C16.8798 9.93963 16.5679 10.0321 16.2479 10.0833C15.6519 10.2037 15.0361 10.184 14.449 10.0261H14.4032ZM22.2292 8.18126C21.9723 8.49532 21.6667 8.76612 21.324 8.98334C20.8135 9.30398 20.2382 9.50747 19.6396 9.57917C19.3166 9.6254 18.9887 9.6254 18.6657 9.57917C18.7785 9.24444 18.9325 8.92499 19.124 8.62813C19.2227 8.45407 19.3419 8.29249 19.4792 8.14688C19.7198 7.86526 20.0019 7.62186 20.3157 7.42501C21.1141 6.93558 22.0586 6.741 22.9854 6.87501C22.8199 7.35508 22.5631 7.79862 22.2292 8.18126V8.18126Z" fill="#F24444"/>
<path d="M71.192 24.016C72.536 24.016 73.7307 24.3147 74.776 24.912C75.8213 25.488 76.632 26.352 77.208 27.504C77.8053 28.6347 78.104 30 78.104 31.6V42H73.624V32.208C73.624 30.8 73.272 29.7227 72.568 28.976C71.864 28.208 70.904 27.824 69.688 27.824C68.4507 27.824 67.4693 28.208 66.744 28.976C66.04 29.7227 65.688 30.8 65.688 32.208V42H61.208V18.32H65.688V26.48C66.264 25.712 67.032 25.1147 67.992 24.688C68.952 24.24 70.0187 24.016 71.192 24.016ZM98.8443 32.752C98.8443 33.392 98.8016 33.968 98.7163 34.48H85.7563C85.8629 35.76 86.3109 36.7627 87.1003 37.488C87.8896 38.2133 88.8603 38.576 90.0123 38.576C91.6763 38.576 92.8603 37.8613 93.5643 36.432H98.3963C97.8843 38.1387 96.9029 39.5467 95.4523 40.656C94.0016 41.744 92.2203 42.288 90.1083 42.288C88.4016 42.288 86.8656 41.9147 85.5003 41.168C84.1563 40.4 83.1003 39.3227 82.3323 37.936C81.5856 36.5493 81.2122 34.9493 81.2122 33.136C81.2122 31.3013 81.5856 29.6907 82.3323 28.304C83.0789 26.9173 84.1243 25.8507 85.4683 25.104C86.8123 24.3573 88.3589 23.984 90.1083 23.984C91.7936 23.984 93.2976 24.3467 94.6203 25.072C95.9643 25.7973 96.9989 26.832 97.7243 28.176C98.4709 29.4987 98.8443 31.024 98.8443 32.752ZM94.2043 31.472C94.1829 30.32 93.7669 29.4027 92.9563 28.72C92.1456 28.016 91.1536 27.664 89.9803 27.664C88.8709 27.664 87.9323 28.0053 87.1643 28.688C86.4176 29.3493 85.9589 30.2773 85.7883 31.472H94.2043ZM100.962 33.072C100.962 31.28 101.314 29.6907 102.018 28.304C102.744 26.9173 103.714 25.8507 104.93 25.104C106.168 24.3573 107.544 23.984 109.058 23.984C110.381 23.984 111.533 24.2507 112.514 24.784C113.517 25.3173 114.317 25.9893 114.914 26.8V24.272H119.426V42H114.914V39.408C114.338 40.24 113.538 40.9333 112.514 41.488C111.512 42.0213 110.349 42.288 109.026 42.288C107.533 42.288 106.168 41.904 104.93 41.136C103.714 40.368 102.744 39.2907 102.018 37.904C101.314 36.496 100.962 34.8853 100.962 33.072ZM114.914 33.136C114.914 32.048 114.701 31.12 114.274 30.352C113.848 29.5627 113.272 28.9653 112.546 28.56C111.821 28.1333 111.042 27.92 110.21 27.92C109.378 27.92 108.61 28.1227 107.906 28.528C107.202 28.9333 106.626 29.5307 106.178 30.32C105.752 31.088 105.538 32.0053 105.538 33.072C105.538 34.1387 105.752 35.0773 106.178 35.888C106.626 36.6773 107.202 37.2853 107.906 37.712C108.632 38.1387 109.4 38.352 110.21 38.352C111.042 38.352 111.821 38.1493 112.546 37.744C113.272 37.3173 113.848 36.72 114.274 35.952C114.701 35.1627 114.914 34.224 114.914 33.136ZM128.282 18.32V42H123.802V18.32H128.282ZM137.924 27.952V36.528C137.924 37.1253 138.063 37.5627 138.34 37.84C138.639 38.096 139.129 38.224 139.812 38.224H141.892V42H139.076C135.3 42 133.412 40.1653 133.412 36.496V27.952H131.3V24.272H133.412V19.888H137.924V24.272H141.892V27.952H137.924ZM155.098 24.016C156.442 24.016 157.637 24.3147 158.682 24.912C159.728 25.488 160.538 26.352 161.114 27.504C161.712 28.6347 162.01 30 162.01 31.6V42H157.53V32.208C157.53 30.8 157.178 29.7227 156.474 28.976C155.77 28.208 154.81 27.824 153.594 27.824C152.357 27.824 151.376 28.208 150.65 28.976C149.946 29.7227 149.594 30.8 149.594 32.208V42H145.114V18.32H149.594V26.48C150.17 25.712 150.938 25.1147 151.898 24.688C152.858 24.24 153.925 24.016 155.098 24.016Z" fill="#F24444"/>
</svg>
